#usda 1.0
(
    customLayerData = {
        dictionary cameraSettings = {
            dictionary Front = {
                double3 position = (5, 0, 0)
                double radius = 5
            }
            dictionary Perspective = {
                double3 position = (-1.589499353278034, -0.9984607990069331, 1.279233224309972)
                double3 target = (1.4830894299239574, 3.0819293809676624, -1.3844743096149945)
            }
            dictionary Right = {
                double3 position = (0, -5, 0)
                double radius = 5
            }
            dictionary Top = {
                double3 position = (0, 0, 5)
                double radius = 5
            }
            string boundCamera = "/OmniverseKit_Persp"
        }
        dictionary omni_layer = {
            string authoring_layer = "./manual_layout_draft.usda"
            dictionary locked = {
            }
            dictionary muteness = {
            }
        }
        dictionary renderSettings = {
        }
    }
    defaultPrim = "World"
    endTimeCode = 1000000
    metersPerUnit = 1
    startTimeCode = 0
    timeCodesPerSecond = 60
    upAxis = "Z"
)

def Xform "World"
{
    def Xform "Layout"
    {
        def Xform "TableAssembly"
        {
            float3 xformOp:rotateXYZ = (0, 0, 0)
            float3 xformOp:scale = (1, 1, 1)
            double3 xformOp:translate = (0, 0, 0)
            uniform token[] xformOpOrder = ["xformOp:translate", "xformOp:rotateXYZ", "xformOp:scale"]

            def Cube "Table" (
                prepend apiSchemas = ["PhysicsCollisionAPI"]
            )
            {
                color3f[] primvars:displayColor = [(0.42, 0.42, 0.45)]
                float[] primvars:displayOpacity = [1]
                double size = 1
                float3 xformOp:rotateXYZ = (0, 0, 0)
                float3 xformOp:scale = (1.6, 0.4, 0.04)
                double3 xformOp:translate = (0, 0, -0.025203358866390146)
                uniform token[] xformOpOrder = ["xformOp:translate", "xformOp:rotateXYZ", "xformOp:scale"]
            }

            def Cube "SourceZone"
            {
                color3f[] primvars:displayColor = [(0.1, 0.35, 0.95)]
                float[] primvars:displayOpacity = [0.38]
                double size = 1
                float3 xformOp:rotateXYZ = (0, 0, 0)
                float3 xformOp:scale = (0.5, 0.3, 0.001)
                double3 xformOp:translate = (-0.5, 0, 0.0005)
                uniform token[] xformOpOrder = ["xformOp:translate", "xformOp:rotateXYZ", "xformOp:scale"]
            }

            def Cube "PlacementZone"
            {
                color3f[] primvars:displayColor = [(0.1, 0.8, 0.3)]
                float[] primvars:displayOpacity = [0.38]
                double size = 1
                float3 xformOp:rotateXYZ = (0, 0, 0)
                float3 xformOp:scale = (1, 0.3, 0.001)
                double3 xformOp:translate = (0.30, 0, 0.0005)
                uniform token[] xformOpOrder = ["xformOp:translate", "xformOp:rotateXYZ", "xformOp:scale"]
            }
        }

        def Xform "DualArmMount"
        {
            float3 xformOp:rotateXYZ = (0, 0, -90)
            float3 xformOp:scale = (1, 1, 1)
            double3 xformOp:translate = (0, 0.42, 0.8)
            uniform token[] xformOpOrder = ["xformOp:translate", "xformOp:rotateXYZ", "xformOp:scale"]

            def Xform "DualArm" (
                prepend references = @../../01_environment/vendor/wuji-description/dual_arm_right_wuji2/usd/dual_arm_right_wuji2.usd@
            )
            {
                over "arm_r_link_6"
                {
                    vector3f physics:angularVelocity = (0, 0, 0)
                    rel physics:simulationOwner
                    vector3f physics:velocity = (0, 0, 0)
                    quatd xformOp:orient = (-0.6122086705791429, 0.03057896998215755, 0.7563569355442795, 0.22845055551829)
                    double3 xformOp:translate = (0.4071045500040053, -0.4015835225582124, -0.11791692972183232)
                }

                over "arm_r_link_5"
                {
                    vector3f physics:angularVelocity = (0, 0, 0)
                    rel physics:simulationOwner
                    vector3f physics:velocity = (0, 0, 0)
                    quatd xformOp:orient = (-0.6122087860805852, 0.03057897330711523, 0.756356849198192, 0.22845053142464417)
                    double3 xformOp:translate = (0.2128219735622405, -0.3199999034404755, -0.14901952743530278)
                }

                over "arm_r_link_3"
                {
                    vector3f physics:angularVelocity = (0, 0, 0)
                    rel physics:simulationOwner
                    vector3f physics:velocity = (0, 0, 0)
                    quatd xformOp:orient = (0.8567868052067175, -0.22957520887157545, -0.44601477243104626, -0.11950906521482357)
                    double3 xformOp:translate = (4.2915344167226976e-8, -0.16999998688697815, 7.152557368605983e-8)
                }

                over "arm_r_link_2"
                {
                    vector3f physics:angularVelocity = (0, 0, 0)
                    rel physics:simulationOwner
                    vector3f physics:velocity = (0, 0, 0)
                    quatd xformOp:orient = (0.8567867728597353, -0.22957518750298794, -0.44601480407062455, -0.11950922008535955)
                    double3 xformOp:translate = (4.2915344167226976e-8, -0.16999997198581696, 7.152557368605983e-8)
                }

                over "arm_l_link_finger"
                {
                    vector3f physics:angularVelocity = (0, 0, 0)
                    rel physics:simulationOwner
                    vector3f physics:velocity = (0, 0, 0)
                    quatd xformOp:orient = (0.9999999999999933, -4.411692110844221e-8, 3.359870755429909e-8, 1.0122993834876126e-7)
                    double3 xformOp:translate = (7.271766666594459e-8, 0.16999997198581696, -0.661499845981598)
                }

                over "arm_l_link_7"
                {
                    vector3f physics:angularVelocity = (0, 0, 0)
                    rel physics:simulationOwner
                    vector3f physics:velocity = (0, 0, 0)
                    quatd xformOp:orient = (0.9999999999999939, -4.241252199495882e-8, 8.727885827295098e-24, 1.0204720108314493e-7)
                    double3 xformOp:translate = (4.291534427824928e-8, 0.16999997198581696, -0.5599998563528061)
                }

                over "arm_l_link_6"
                {
                    vector3f physics:angularVelocity = (0, 0, 0)
                    rel physics:simulationOwner
                    vector3f physics:velocity = (0, 0, 0)
                    quatd xformOp:orient = (0.9999999999999876, -3.13114582203202e-8, -2.999308103209618e-8, -1.5162124991544754e-7)
                    double3 xformOp:translate = (4.291534427824928e-8, 0.16999997198581696, -0.512999850511551)
                }

                over "arm_r_link_7"
                {
                    vector3f physics:angularVelocity = (0, 0, 0)
                    rel physics:simulationOwner
                    vector3f physics:velocity = (0, 0, 0)
                    quatd xformOp:orient = (-0.604315456118285, -0.1026520659512904, 0.7878739442043952, 0.05932984827463164)
                    double3 xformOp:translate = (0.4499744401127099, -0.4195855259895326, -0.11105393171310429)
                }

                over "arm_l_link_5"
                {
                    vector3f physics:angularVelocity = (0, 0, 0)
                    rel physics:simulationOwner
                    vector3f physics:velocity = (0, 0, 0)
                    quatd xformOp:orient = (0.999999999999999, -2.916846260586461e-8, -2.91684626058646e-8, 1.722797210195782e-8)
                    double3 xformOp:translate = (4.291534427824928e-8, 0.16999998688697815, -0.29999994039535527)
                }

                over "arm_l_link_3"
                {
                    vector3f physics:angularVelocity = (0, 0, 0)
                    rel physics:simulationOwner
                    vector3f physics:velocity = (0, 0, 0)
                    quatd xformOp:orient = (0.9999999999999992, 1.2939676848998098e-9, -3.523410368227198e-8, 1.764074317631095e-8)
                    double3 xformOp:translate = (4.291534427824928e-8, 0.16999997198581696, 1.1920928910669204e-8)
                }

                over "arm_l_link_tf"
                {
                    vector3f physics:angularVelocity = (0, 0, 0)
                    rel physics:simulationOwner
                    vector3f physics:velocity = (0, 0, 0)
                    quatd xformOp:orient = (0.999999999999993, -3.453890344420786e-8, 5.032811644727431e-8, 1.0130624341084911e-7)
                    double3 xformOp:translate = (7.271766666594459e-8, 0.16999997198581696, -0.6224998414516449)
                }

                over "arm_base_link"
                {
                    vector3f physics:angularVelocity = (0, 0, 0)
                    rel physics:simulationOwner
                    vector3f physics:velocity = (0, 0, 0)
                    quatd xformOp:orient = (0.9999999999999978, -1.1509880816056073e-13, -4.438773657840922e-14, -6.664001874613635e-8)
                    double3 xformOp:translate = (1.3113021835042815e-8, -2.911675752735391e-24, 1.1920928910669204e-8)
                }

                over "arm_l_link_2"
                {
                    vector3f physics:angularVelocity = (0, 0, 0)
                    rel physics:simulationOwner
                    vector3f physics:velocity = (0, 0, 0)
                    quatd xformOp:orient = (0.9999999999999946, -2.356192170020631e-24, -2.12226980878659e-8, 1.0212630771352602e-7)
                    double3 xformOp:translate = (1.3113021890553966e-8, 0.16999997198581696, 7.152557368605983e-8)
                }

                over "arm_r_link_1"
                {
                    vector3f physics:angularVelocity = (0, 0, 0)
                    rel physics:simulationOwner
                    vector3f physics:velocity = (0, 0, 0)
                    quatd xformOp:orient = (0.8870109227693794, 4.214684864387342e-8, -0.4617484411319744, 6.167035404631511e-8)
                    double3 xformOp:translate = (4.2915344167226976e-8, -0.16999998688697815, 7.152557368605983e-8)
                }

                over "arm_l_link_1"
                {
                    vector3f physics:angularVelocity = (0, 0, 0)
                    rel physics:simulationOwner
                    vector3f physics:velocity = (0, 0, 0)
                    quatd xformOp:orient = (0.9999999999999999, 3.8510642745601047e-10, -9.851559772130505e-11, 1.4895858237831381e-8)
                    double3 xformOp:translate = (1.3113021890553966e-8, 0.16999997198581696, 1.1920928910669204e-8)
                }

                over "WujiHand2RightAttach"
                {
                    over "r_thumb_middle"
                    {
                        vector3f physics:angularVelocity = (0, 0, 0)
                        rel physics:simulationOwner
                        vector3f physics:velocity = (0, 0, 0)
                        quatd xformOp:orient = (-0.22674772919852476, 0.8091886506349669, -0.09389317486077191, -0.5338382402015037)
                        double3 xformOp:translate = (-0.1870731010559279, -0.5645619226429373, 0.56188805103302)
                    }

                    over "r_wrist"
                    {
                        vector3f physics:angularVelocity = (0, 0, 0)
                        rel physics:simulationOwner
                        vector3f physics:velocity = (0, 0, 0)
                        quatd xformOp:orient = (-0.6043155464309952, 0.787873879515735, 0.10265202393969694, 0.059329860101948274)
                        double3 xformOp:translate = (-0.24702750475556684, -0.5315107427314791, 0.5560501933097839)
                    }

                    over "r_middle_finger_middle"
                    {
                        vector3f physics:angularVelocity = (0, 0, 0)
                        rel physics:simulationOwner
                        vector3f physics:velocity = (0, 0, 0)
                        quatd xformOp:orient = (-0.5914147554944416, 0.7976381702901584, 0.09849989424790243, 0.06557215196080053)
                        double3 xformOp:translate = (-0.245442144474252, -0.6501375012419739, 0.5997936248779296)
                    }

                    over "r_index_finger_proximal_abd"
                    {
                        vector3f physics:angularVelocity = (0, 0, 0)
                        rel physics:simulationOwner
                        vector3f physics:velocity = (0, 0, 0)
                        quatd xformOp:orient = (-0.5849167606113987, 0.8039504661013591, 0.10485042429437441, -0.023289906323658262)
                        double3 xformOp:translate = (-0.22148834764487874, -0.6093432189102508, 0.5881770968437194)
                    }

                    over "r_middle_finger_tip"
                    {
                        vector3f physics:angularVelocity = (0, 0, 0)
                        rel physics:simulationOwner
                        vector3f physics:velocity = (0, 0, 0)
                        quatd xformOp:orient = (-0.5914148765455638, 0.7976380829033225, 0.09849986837531885, 0.06557216202744014)
                        double3 xformOp:translate = (-0.2447964193309929, -0.7020215415005493, 0.6156268835067749)
                    }

                    over "r_index_finger_distal"
                    {
                        vector3f physics:angularVelocity = (0, 0, 0)
                        rel physics:simulationOwner
                        vector3f physics:velocity = (0, 0, 0)
                        quatd xformOp:orient = (-0.5849167400230928, 0.8039504845834027, 0.10485039690246215, -0.02328990872171644)
                        double3 xformOp:translate = (-0.2107452682240426, -0.672122273323648, 0.6092907905578613)
                    }

                    over "r_pinky_middle"
                    {
                        vector3f physics:angularVelocity = (0, 0, 0)
                        rel physics:simulationOwner
                        vector3f physics:velocity = (0, 0, 0)
                        quatd xformOp:orient = (-0.6021581373946551, 0.769709558215738, 0.07747985891341276, 0.19735664423446986)
                        double3 xformOp:translate = (-0.2922713377446984, -0.6337756074157207, 0.573720645904541)
                    }

                    over "r_middle_finger_distal"
                    {
                        vector3f physics:angularVelocity = (0, 0, 0)
                        rel physics:simulationOwner
                        vector3f physics:velocity = (0, 0, 0)
                        quatd xformOp:orient = (-0.5914147541650714, 0.7976381700559904, 0.09849989421898518, 0.06557216684271107)
                        double3 xformOp:translate = (-0.24509101447758463, -0.6783509277247491, 0.6084033966064453)
                    }

                    over "r_index_finger_tip"
                    {
                        vector3f physics:angularVelocity = (0, 0, 0)
                        rel physics:simulationOwner
                        vector3f physics:velocity = (0, 0, 0)
                        quatd xformOp:orient = (-0.5849167399643327, 0.8039504845723909, 0.10485039690102602, -0.02328991058404256)
                        double3 xformOp:translate = (-0.2067826628250103, -0.6952784693382648, 0.617078673839569)
                    }

                    over "r_index_finger_middle"
                    {
                        vector3f physics:angularVelocity = (0, 0, 0)
                        rel physics:simulationOwner
                        vector3f physics:velocity = (0, 0, 0)
                        quatd xformOp:orient = (-0.5849168027554339, 0.8039504367350988, 0.10485041333687442, -0.02328991092493401)
                        double3 xformOp:translate = (-0.2154683989359702, -0.6445219400673852, 0.6000083208084106)
                    }

                    over "r_pinky_tip"
                    {
                        vector3f physics:angularVelocity = (0, 0, 0)
                        rel physics:simulationOwner
                        vector3f physics:velocity = (0, 0, 0)
                        quatd xformOp:orient = (-0.6021580181192662, 0.7697096498022629, 0.07747985613287112, 0.1973566520530408)
                        double3 xformOp:translate = (-0.30327018455763394, -0.6838079097764823, 0.584009301662445)
                    }

                    over "r_pinky_distal"
                    {
                        vector3f physics:angularVelocity = (0, 0, 0)
                        rel physics:simulationOwner
                        vector3f physics:velocity = (0, 0, 0)
                        quatd xformOp:orient = (-0.6021580849914946, 0.7697096005240742, 0.07747985717234512, 0.1973566397996255)
                        double3 xformOp:translate = (-0.29806020135126227, -0.660108402837541, 0.5791357278823852)
                    }

                    over "r_index_finger_proximal"
                    {
                        vector3f physics:angularVelocity = (0, 0, 0)
                        rel physics:simulationOwner
                        vector3f physics:velocity = (0, 0, 0)
                        quatd xformOp:orient = (-0.5849168538710725, 0.8039503978799452, 0.10485042349358445, -0.023289922701903724)
                        double3 xformOp:translate = (-0.22364013447363779, -0.5961297631595658, 0.582479190826416)
                    }

                    over "r_pinky_proximal"
                    {
                        vector3f physics:angularVelocity = (0, 0, 0)
                        rel physics:simulationOwner
                        vector3f physics:velocity = (0, 0, 0)
                        quatd xformOp:orient = (-0.6021581211209701, 0.7697095876948298, 0.07747982607861624, 0.19735659180667292)
                        double3 xformOp:translate = (-0.2818083964393554, -0.5880209366770501, 0.563132894039154)
                    }

                    over "r_ring_finger_proximal"
                    {
                        vector3f physics:angularVelocity = (0, 0, 0)
                        rel physics:simulationOwner
                        vector3f physics:velocity = (0, 0, 0)
                        quatd xformOp:orient = (-0.6031054058988663, 0.7813370996333361, 0.08545671728964752, 0.13591672296743898)
                        double3 xformOp:translate = (-0.2655222321551184, -0.5949722693267869, 0.5741841912269592)
                    }

                    over "r_thumb_tip"
                    {
                        vector3f physics:angularVelocity = (0, 0, 0)
                        rel physics:simulationOwner
                        vector3f physics:velocity = (0, 0, 0)
                        quatd xformOp:orient = (-0.2709991075651506, 0.7954623820671579, -0.12317133219711869, -0.5278521623899269)
                        double3 xformOp:translate = (-0.1370178368737454, -0.6009191036403517, 0.5810994029045105)
                    }

                    over "r_ring_finger_tip"
                    {
                        vector3f physics:angularVelocity = (0, 0, 0)
                        rel physics:simulationOwner
                        vector3f physics:velocity = (0, 0, 0)
                        quatd xformOp:orient = (-0.603105406771514, 0.7813370997689125, 0.08545670985389511, 0.13591672299102314)
                        double3 xformOp:translate = (-0.2775051236431378, -0.697363347984814, 0.6003421664237976)
                    }

                    over "r_thumb_proximal"
                    {
                        vector3f physics:angularVelocity = (0, 0, 0)
                        rel physics:simulationOwner
                        vector3f physics:velocity = (0, 0, 0)
                        quatd xformOp:orient = (0.27562803865520624, -0.6045984052901892, -0.27115185909807593, 0.6963954493930166)
                        double3 xformOp:translate = (-0.2278985866672666, -0.5478557525939596, 0.5564651608467102)
                    }

                    over "r_thumb_distal"
                    {
                        vector3f physics:angularVelocity = (0, 0, 0)
                        rel physics:simulationOwner
                        vector3f physics:velocity = (0, 0, 0)
                        quatd xformOp:orient = (-0.2709990840074354, 0.7954623875480008, -0.12317133304578569, -0.5278521660268998)
                        double3 xformOp:translate = (-0.16003822299759068, -0.5842074207711749, 0.5722885847091674)
                    }

                    over "r_middle_finger_proximal"
                    {
                        vector3f physics:angularVelocity = (0, 0, 0)
                        rel physics:simulationOwner
                        vector3f physics:velocity = (0, 0, 0)
                        quatd xformOp:orient = (-0.5914148042082964, 0.7976381297657933, 0.0984999189558587, 0.06557216843051208)
                        double3 xformOp:translate = (-0.24578042894169588, -0.6006472580339075, 0.5834701776504516)
                    }

                    over "r_middle_finger_proximal_abd"
                    {
                        vector3f physics:angularVelocity = (0, 0, 0)
                        rel physics:simulationOwner
                        vector3f physics:velocity = (0, 0, 0)
                        quatd xformOp:orient = (-0.5914148198468576, 0.7976381220211786, 0.09849988819715783, 0.06557216779384385)
                        double3 xformOp:translate = (-0.24588968471868394, -0.6141773335802472, 0.5888197541236877)
                    }

                    over "r_ring_finger_proximal_abd"
                    {
                        vector3f physics:angularVelocity = (0, 0, 0)
                        rel physics:simulationOwner
                        vector3f physics:velocity = (0, 0, 0)
                        quatd xformOp:orient = (-0.6031052961350097, 0.7813371832687187, 0.08545671339884209, 0.13591673168037516)
                        double3 xformOp:translate = (-0.2674645691830954, -0.6086649760836527, 0.5787040710449218)
                    }

                    over "r_ring_finger_distal"
                    {
                        vector3f physics:angularVelocity = (0, 0, 0)
                        rel physics:simulationOwner
                        vector3f physics:velocity = (0, 0, 0)
                        quatd xformOp:orient = (-0.6031054706009583, 0.7813370500809647, 0.08545671093850923, 0.1359167247160736)
                        double3 xformOp:translate = (-0.27479957859172793, -0.6734626007782265, 0.5945115804672241)
                    }

                    over "r_ring_finger_middle"
                    {
                        vector3f physics:angularVelocity = (0, 0, 0)
                        rel physics:simulationOwner
                        vector3f physics:velocity = (0, 0, 0)
                        quatd xformOp:orient = (-0.6031053438147224, 0.781337149592425, 0.08545670133352751, 0.13591672128955487)
                        double3 xformOp:translate = (-0.2715747875203501, -0.64497482913911, 0.5875619173049926)
                    }

                    over "r_thumb_proximal_abd"
                    {
                        vector3f physics:angularVelocity = (0, 0, 0)
                        rel physics:simulationOwner
                        vector3f physics:velocity = (0, 0, 0)
                        quatd xformOp:orient = (-0.4223601773306997, 0.771978222350257, 0.10914913285714735, -0.4623288565714343)
                        double3 xformOp:translate = (-0.21326862656582668, -0.5466485653229246, 0.5548768758773803)
                    }

                    over "r_pinky_proximal_abd"
                    {
                        vector3f physics:angularVelocity = (0, 0, 0)
                        rel physics:simulationOwner
                        vector3f physics:velocity = (0, 0, 0)
                        quatd xformOp:orient = (-0.6021615828166633, 0.7697110693211705, 0.07746591499021803, 0.19734571178244378)
                        double3 xformOp:translate = (-0.2852893975656503, -0.6015898743363735, 0.5670646548271179)
                    }

                    over "joints"
                    {
                        over "r_index_finger_mcp_flex"
                        {
                            float drive:angular:physics:targetPosition = 0
                            float physics:lowerLimit = -59.98868
                            float physics:upperLimit = 89.95437
                            float state:angular:physics:position = 0
                            float state:angular:physics:velocity = 0
                        }

                        over "r_index_finger_mcp_abd"
                        {
                            float drive:angular:physics:targetPosition = 0
                            float physics:lowerLimit = -39.992455
                            float physics:upperLimit = 39.992455
                            float state:angular:physics:position = 0
                            float state:angular:physics:velocity = 0
                        }

                        over "r_index_finger_pip"
                        {
                            float drive:angular:physics:targetPosition = 0
                            float physics:lowerLimit = -59.98868
                            float physics:upperLimit = 119.97736
                            float state:angular:physics:position = 0
                            float state:angular:physics:velocity = 0
                        }

                        over "r_index_finger_dip"
                        {
                            float drive:angular:physics:targetPosition = 0
                            float physics:lowerLimit = -59.98868
                            float physics:upperLimit = 89.95437
                            float state:angular:physics:position = 0
                            float state:angular:physics:velocity = 0
                        }

                        over "r_middle_finger_mcp_flex"
                        {
                            float drive:angular:physics:targetPosition = 0
                            float state:angular:physics:position = 0
                            float state:angular:physics:velocity = 0
                        }

                        over "r_middle_finger_mcp_abd"
                        {
                            float drive:angular:physics:targetPosition = 0
                            float state:angular:physics:position = 0
                            float state:angular:physics:velocity = 0
                        }

                        over "r_middle_finger_pip"
                        {
                            float drive:angular:physics:targetPosition = 0
                            float state:angular:physics:position = 0
                            float state:angular:physics:velocity = 0
                        }

                        over "r_middle_finger_dip"
                        {
                            float drive:angular:physics:targetPosition = 0
                            float state:angular:physics:position = 0
                            float state:angular:physics:velocity = 0
                        }

                        over "r_pinky_mcp_flex"
                        {
                            float drive:angular:physics:targetPosition = 0
                            float state:angular:physics:position = 0
                            float state:angular:physics:velocity = 0
                        }

                        over "r_pinky_mcp_abd"
                        {
                            float drive:angular:physics:targetPosition = 0
                            float state:angular:physics:position = 0
                            float state:angular:physics:velocity = 0
                        }

                        over "r_pinky_pip"
                        {
                            float drive:angular:physics:targetPosition = 0
                            float state:angular:physics:position = 0
                            float state:angular:physics:velocity = 0
                        }

                        over "r_pinky_dip"
                        {
                            float drive:angular:physics:targetPosition = 0
                            float state:angular:physics:position = 0
                            float state:angular:physics:velocity = 0
                        }

                        over "r_ring_finger_mcp_flex"
                        {
                            float drive:angular:physics:targetPosition = 0
                            float state:angular:physics:position = 0
                            float state:angular:physics:velocity = 0
                        }

                        over "r_ring_finger_mcp_abd"
                        {
                            float drive:angular:physics:targetPosition = 0
                            float state:angular:physics:position = 0
                            float state:angular:physics:velocity = 0
                        }

                        over "r_ring_finger_pip"
                        {
                            float drive:angular:physics:targetPosition = 0
                            float state:angular:physics:position = 0
                            float state:angular:physics:velocity = 0
                        }

                        over "r_ring_finger_dip"
                        {
                            float drive:angular:physics:targetPosition = 0
                            float state:angular:physics:position = 0
                            float state:angular:physics:velocity = 0
                        }

                        over "r_thumb_cmc_flex"
                        {
                            float drive:angular:physics:targetPosition = 0
                            float state:angular:physics:position = 0
                            float state:angular:physics:velocity = 0
                        }

                        over "r_thumb_cmc_abd"
                        {
                            float drive:angular:physics:targetPosition = 0
                            float state:angular:physics:position = 0
                            float state:angular:physics:velocity = 0
                        }

                        over "r_thumb_mcp"
                        {
                            float drive:angular:physics:targetPosition = 0
                            float state:angular:physics:position = 0
                            float state:angular:physics:velocity = 0
                        }

                        over "r_thumb_ip"
                        {
                            float drive:angular:physics:targetPosition = 0
                            float state:angular:physics:position = 0
                            float state:angular:physics:velocity = 0
                        }
                    }
                }

                over "arm_l_link_d405"
                {
                    vector3f physics:angularVelocity = (0, 0, 0)
                    rel physics:simulationOwner
                    vector3f physics:velocity = (0, 0, 0)
                    quatd xformOp:orient = (-0.27059812046842086, -0.6532814345695842, 0.6532814951968343, 0.2705980644406991)
                    double3 xformOp:translate = (0.13805030107498173, 0.16999998688697812, -0.5911125421524048)
                }

                over "arm_r_link_tf"
                {
                    vector3f physics:angularVelocity = (0, 0, 0)
                    rel physics:simulationOwner
                    vector3f physics:velocity = (0, 0, 0)
                    quatd xformOp:orient = (-0.6043154735639846, -0.10265206411328802, 0.7878739300973804, 0.05932986109310022)
                    double3 xformOp:translate = (0.5099105072021484, -0.41800448298454296, -0.09330956935882573)
                }

                over "arm_l_link_gripper"
                {
                    vector3f physics:angularVelocity = (0, 0, 0)
                    rel physics:simulationOwner
                    vector3f physics:velocity = (0, 0, 0)
                    quatd xformOp:orient = (0.9999999999999983, -3.305491821207209e-8, 4.3903711881675256e-8, 1.7621167352917865e-8)
                    double3 xformOp:translate = (4.291534427824928e-8, 0.16999997198581696, -0.6224998265504837)
                }

                over "arm_r_link_d405"
                {
                    vector3f physics:angularVelocity = (0, 0, 0)
                    rel physics:simulationOwner
                    vector3f physics:velocity = (0, 0, 0)
                    quatd xformOp:orient = (0.4342920687754371, -0.5970036132003631, 0.6189669349987289, -0.26806159404648344)
                    double3 xformOp:translate = (0.44532993629574763, -0.4511937499046327, 0.02822579145431514)
                }

                over "arm_r_wuji2_mount"
                {
                    vector3f physics:angularVelocity = (0, 0, 0)
                    rel physics:simulationOwner
                    vector3f physics:velocity = (0, 0, 0)
                    quatd xformOp:orient = (-0.46926811959264936, 0.48452502973914613, 0.6296969629251804, -0.3853630267333164)
                    double3 xformOp:translate = (0.5312605929374694, -0.4140274524688722, -0.08844964504241948)
                }

                over "arm_l_link_4"
                {
                    vector3f physics:angularVelocity = (0, 0, 0)
                    rel physics:simulationOwner
                    vector3f physics:velocity = (0, 0, 0)
                    quatd xformOp:orient = (0.9999999999999988, -3.263637177069944e-8, -3.263637177069944e-8, 1.7669893306546254e-8)
                    double3 xformOp:translate = (4.291534427824928e-8, 0.16999997198581696, -0.2999998807907105)
                }

                over "arm_base_link_d435i_2"
                {
                    vector3f physics:angularVelocity = (0, 0, 0)
                    rel physics:simulationOwner
                    vector3f physics:velocity = (0, 0, 0)
                    quatd xformOp:orient = (-0.24184481271090608, 0.6644630181332398, -0.664462997986055, 0.24184480231230243)
                    double3 xformOp:translate = (0.07499997138977049, 7.450580580270489e-9, 0.15999997854232784)
                }

                over "arm_r_link_4"
                {
                    vector3f physics:angularVelocity = (0, 0, 0)
                    rel physics:simulationOwner
                    vector3f physics:velocity = (0, 0, 0)
                    quatd xformOp:orient = (-0.652570276388288, 0.2566046564800656, 0.7121550583665034, 0.03378250272349671)
                    double3 xformOp:translate = (0.2128219735622405, -0.3199999034404755, -0.14901952743530278)
                }

                over "arm_base_link_d435i_1"
                {
                    vector3f physics:angularVelocity = (0, 0, 0)
                    rel physics:simulationOwner
                    vector3f physics:velocity = (0, 0, 0)
                    quatd xformOp:orient = (-0.463903864712356, 0.5336602336115811, -0.5336602323131423, 0.46390377861584176)
                    double3 xformOp:translate = (0.06499998092651366, 1.490116117941476e-8, 0.13499994277954097)
                }

                over "joints"
                {
                    over "arm_l_joint_1"
                    {
                        float drive:angular:physics:targetPosition = 0
                        float physics:lowerLimit = -180.00041
                        float physics:upperLimit = 90.000206
                        float state:angular:physics:position = 0
                        float state:angular:physics:velocity = 0
                    }

                    over "arm_l_joint_2"
                    {
                        float drive:angular:physics:targetPosition = 0
                        float physics:lowerLimit = 0
                        float physics:upperLimit = 90.000206
                        float state:angular:physics:position = 0
                        float state:angular:physics:velocity = 0
                    }

                    over "arm_l_joint_3"
                    {
                        float drive:angular:physics:targetPosition = 0
                        float physics:lowerLimit = -135.0003
                        float physics:upperLimit = 135.0003
                        float state:angular:physics:position = 0
                        float state:angular:physics:velocity = 0
                    }

                    over "arm_l_joint_4"
                    {
                        float drive:angular:physics:targetPosition = 0
                        float physics:lowerLimit = -150.00035
                        float physics:upperLimit = 0
                        float state:angular:physics:position = 0
                        float state:angular:physics:velocity = 0
                    }

                    over "arm_l_joint_5"
                    {
                        float drive:angular:physics:targetPosition = 0
                        float physics:lowerLimit = -135.0003
                        float physics:upperLimit = 135.0003
                        float state:angular:physics:position = 0
                        float state:angular:physics:velocity = 0
                    }

                    over "arm_l_joint_6"
                    {
                        float drive:angular:physics:targetPosition = 0
                        float physics:lowerLimit = -90.000206
                        float physics:upperLimit = 90.000206
                        float state:angular:physics:position = 0
                        float state:angular:physics:velocity = 0
                    }

                    over "arm_l_joint_7"
                    {
                        float drive:angular:physics:targetPosition = 0
                        float physics:lowerLimit = -90.000206
                        float physics:upperLimit = 90.000206
                        float state:angular:physics:position = 0
                        float state:angular:physics:velocity = 0
                    }

                    over "arm_l_joint_finger"
                    {
                        float drive:angular:physics:targetPosition = 0
                        float physics:lowerLimit = -90.000206
                        float physics:upperLimit = 0
                        float state:angular:physics:position = 0
                        float state:angular:physics:velocity = 0
                    }

                    over "arm_r_joint_1"
                    {
                        float drive:angular:physics:targetPosition = 55
                        float physics:lowerLimit = -90.000206
                        float physics:upperLimit = 180.00041
                        float state:angular:physics:position = 55
                        float state:angular:physics:velocity = 0
                    }

                    over "arm_r_joint_2"
                    {
                        float drive:angular:physics:targetPosition = -30
                        float physics:lowerLimit = -90.000206
                        float physics:upperLimit = 0
                        float state:angular:physics:position = -30.000002
                        float state:angular:physics:velocity = 0
                    }

                    over "arm_r_joint_3"
                    {
                        float drive:angular:physics:targetPosition = 0
                        float physics:lowerLimit = -135.0003
                        float physics:upperLimit = 135.0003
                        float state:angular:physics:position = 0
                        float state:angular:physics:velocity = 0
                    }

                    over "arm_r_joint_4"
                    {
                        float drive:angular:physics:targetPosition = 40
                        float physics:lowerLimit = 0
                        float physics:upperLimit = 150.00035
                        float state:angular:physics:position = 40
                        float state:angular:physics:velocity = 0
                    }

                    over "arm_r_joint_5"
                    {
                        float drive:angular:physics:targetPosition = 35
                        float physics:lowerLimit = -135.0003
                        float physics:upperLimit = 135.0003
                        float state:angular:physics:position = 35
                        float state:angular:physics:velocity = 0
                    }

                    over "arm_r_joint_6"
                    {
                        float drive:angular:physics:targetPosition = 0
                        float physics:lowerLimit = -90.000206
                        float physics:upperLimit = 90.000206
                        float state:angular:physics:position = 0
                        float state:angular:physics:velocity = 0
                    }

                    over "arm_r_joint_7"
                    {
                        float drive:angular:physics:targetPosition = 25
                        float physics:lowerLimit = -90.000206
                        float physics:upperLimit = 90.000206
                        float state:angular:physics:position = 25
                        float state:angular:physics:velocity = 0
                    }
                }
            }
        }
    }

    def PhysicsScene "PhysicsScene" (
        prepend apiSchemas = ["PhysxSceneAPI"]
    )
    {
        vector3f physics:gravityDirection = (0, 0, -1)
        float physics:gravityMagnitude = 9.81
    }

    def Xform "Environment"
    {
        def DistantLight "DistantLight"
        {
            float inputs:intensity = 1000
            float3 xformOp:rotateXYZ = (-35, 25, 0)
            uniform token[] xformOpOrder = ["xformOp:rotateXYZ"]
        }
    }

    def Xform "Markers"
    {
        def Sphere "TableCenter"
        {
            color3f[] primvars:displayColor = [(1, 1, 1)]
            double radius = 0.012
            float3 xformOp:rotateXYZ = (0, 0, 0)
            float3 xformOp:scale = (1, 1, 1)
            double3 xformOp:translate = (0, 0, 0)
            uniform token[] xformOpOrder = ["xformOp:translate", "xformOp:rotateXYZ", "xformOp:scale"]
        }

        def Sphere "SourceZoneCenter"
        {
            color3f[] primvars:displayColor = [(0.1, 0.35, 0.95)]
            double radius = 0.012
            float3 xformOp:rotateXYZ = (0, 0, 0)
            float3 xformOp:scale = (1, 1, 1)
            double3 xformOp:translate = (-0.5, 0, 0.0005)
            uniform token[] xformOpOrder = ["xformOp:translate", "xformOp:rotateXYZ", "xformOp:scale"]
        }

        def Sphere "PlacementZoneCenter"
        {
            color3f[] primvars:displayColor = [(0.1, 0.8, 0.3)]
            double radius = 0.012
            float3 xformOp:rotateXYZ = (0, 0, 0)
            float3 xformOp:scale = (1, 1, 1)
            double3 xformOp:translate = (0.25, 0, 0.0005)
            uniform token[] xformOpOrder = ["xformOp:translate", "xformOp:rotateXYZ", "xformOp:scale"]
        }

        def Sphere "RobotRoot"
        {
            color3f[] primvars:displayColor = [(0.95, 0.15, 0.1)]
            double radius = 0.012
            float3 xformOp:rotateXYZ = (0, 0, 0)
            float3 xformOp:scale = (1, 1, 1)
            double3 xformOp:translate = (0, 0.42, 0.8)
            uniform token[] xformOpOrder = ["xformOp:translate", "xformOp:rotateXYZ", "xformOp:scale"]
        }

        def Xform "DistanceLabels"
        {
            custom double dgn2:robot_to_source_m = 1.0322791531363986
            custom double dgn2:robot_to_table_m = 0.9035485598461215
            custom double dgn2:source_to_placement_m = 0.75
            custom string dgn2:units = "meters"

            def BasisCurves "RobotToTable"
            {
                int[] curveVertexCounts = [2]
                point3f[] points = [(0, 0.42, 0.8), (0, 0, 0)]
                color3f[] primvars:displayColor = [(0.95, 0.15, 0.1)]
                uniform token type = "linear"
                float[] widths = [0.006, 0.006]
            }

            def BasisCurves "RobotToSource"
            {
                int[] curveVertexCounts = [2]
                point3f[] points = [(0, 0.42, 0.8), (-0.5, 0, 0.0005)]
                color3f[] primvars:displayColor = [(0.1, 0.35, 0.95)]
                uniform token type = "linear"
                float[] widths = [0.006, 0.006]
            }

            def BasisCurves "SourceToPlacement"
            {
                int[] curveVertexCounts = [2]
                point3f[] points = [(-0.5, 0, 0.0005), (0.25, 0, 0.0005)]
                color3f[] primvars:displayColor = [(0.95, 0.75, 0.05)]
                uniform token type = "linear"
                float[] widths = [0.006, 0.006]
            }
        }
    }
}


def Xform "Environment"
{
    quatd xformOp:orient = (1, 0, 0, 0)
    double3 xformOp:scale = (1, 1, 1)
    double3 xformOp:translate = (0, 0, 0)
    uniform token[] xformOpOrder = ["xformOp:translate", "xformOp:orient", "xformOp:scale"]

    def DistantLight "defaultLight" (
        prepend apiSchemas = ["ShapingAPI"]
    )
    {
        float inputs:angle = 1
        float inputs:intensity = 3000
        float inputs:shaping:cone:angle = 180
        float inputs:shaping:cone:softness
        float inputs:shaping:focus
        color3f inputs:shaping:focusTint
        asset inputs:shaping:ies:file
        quatd xformOp:orient = (0.6532814824381883, 0.2705980500730985, 0.27059805007309845, 0.6532814824381882)
        double3 xformOp:scale = (1, 1, 1)
        double3 xformOp:translate = (0, 0, 0)
        uniform token[] xformOpOrder = ["xformOp:translate", "xformOp:orient", "xformOp:scale"]
    }
}

def "Render" (
    hide_in_stage_window = true
    no_delete = true
)
{
    def "OmniverseKit"
    {
        def "HydraTextures" (
            hide_in_stage_window = true
            no_delete = true
        )
        {
            def RenderProduct "omni_kit_widget_viewport_ViewportTexture_0" (
                prepend apiSchemas = ["OmniRtxSettingsCommonAdvancedAPI_1", "OmniRtxSettingsRtAdvancedAPI_1", "OmniRtxSettingsPtAdvancedAPI_1", "OmniRtxPostColorGradingAPI_1", "OmniRtxPostChromaticAberrationAPI_1", "OmniRtxPostBloomPhysicalAPI_1", "OmniRtxPostMatteObjectAPI_1", "OmniRtxPostCompositingAPI_1", "OmniRtxPostDofAPI_1", "OmniRtxPostMotionBlurAPI_1", "OmniRtxPostTvNoiseAPI_1", "OmniRtxPostTonemapIrayReinhardAPI_1", "OmniRtxPostDebugSettingsAPI_1", "OmniRtxDebugSettingsAPI_1"]
                hide_in_stage_window = true
                no_delete = true
            )
            {
                rel camera = </OmniverseKit_Persp>
                token omni:rtx:background:source:texture:textureMode = "repeatMirrored"
                token omni:rtx:background:source:type = "domeLight"
                string omni:rtx:material:db:rtSensorNameToIdMap = "DefaultMaterial:0;AsphaltStandardMaterial:1;AsphaltWeatheredMaterial:2;VegetationGrassMaterial:3;WaterStandardMaterial:4;GlassStandardMaterial:5;FiberGlassMaterial:6;MetalAlloyMaterial:7;MetalAluminumMaterial:8;MetalAluminumOxidizedMaterial:9;PlasticStandardMaterial:10;RetroMarkingsMaterial:11;RetroSignMaterial:12;RubberStandardMaterial:13;SoilClayMaterial:14;ConcreteRoughMaterial:15;ConcreteSmoothMaterial:16;OakTreeBarkMaterial:17;FabricStandardMaterial:18;PlexiGlassStandardMaterial:19;MetalSilverMaterial:20"
                bool omni:rtx:post:registeredCompositing:invertColorCorrection = 1
                bool omni:rtx:post:registeredCompositing:invertToneMap = 1
                bool omni:rtx:pt:lightcache:cached:dontResolveConflicts = 1
                int omni:rtx:pt:maxSamplesPerLaunch = 2073600
                int omni:rtx:pt:mgpu:maxPixelsPerRegionExponent = 12
                color3f omni:rtx:rt:ambientLight:color = (0.1, 0.1, 0.1)
                bool omni:rtx:rt:demoire = 0
                bool omni:rtx:rt:lightcache:spatialCache:dontResolveConflicts = 1
                uint omni:rtx:viewTile:limit = 4294967295
                rel orderedVars = </Render/Vars/LdrColor>
                custom bool overrideClipRange = 0
                uniform int2 resolution = (1280, 720)
            }
        }
    }

    def RenderSettings "OmniverseGlobalRenderSettings" (
        prepend apiSchemas = ["OmniRtxSettingsGlobalRtAdvancedAPI_1", "OmniRtxSettingsGlobalPtAdvancedAPI_1"]
        no_delete = true
    )
    {
        rel products = </Render/OmniverseKit/HydraTextures/omni_kit_widget_viewport_ViewportTexture_0>
    }

    def "Vars"
    {
        def RenderVar "LdrColor" (
            hide_in_stage_window = true
            no_delete = true
        )
        {
            uniform string sourceName = "LdrColor"
        }
    }
}
